<svg xmlns="http://www.w3.org/2000/svg" width="396" height="394" viewBox="0 0 396 394" fill="none"><metadata><rdf:RDF xmlns:rdf="http://www.w3.org/1999/02/22-rdf-syntax-ns#" xmlns:dc="http://purl.org/dc/elements/1.1/"><rdf:Description><dc:creator>RealFaviconGenerator</dc:creator><dc:source>https://realfavicongenerator.net</dc:source></rdf:Description></rdf:RDF></metadata><ellipse cx="198" cy="197" rx="198" ry="197" fill="#1E5B73"></ellipse><path d="M35 235.5C35 235.5 74.5006 216.191 113.001 215.507C123.14 215.327 146.5 212.501 176.5 221.507C200.5 227 217 244.5 270 248C321 248 352.502 229.077 352.502 229.077M333 248.388C333 248.388 296.227 271.447 256.5 271.502C215.219 269.006 201 256.825 179.499 248.384C150.5 237 116.999 234.998 85.4968 244.498M211.5 103C267.281 103 312.5 146.652 312.5 200.5C312.5 216.548 308.481 231.69 301.366 245.041C292 246.532 281.504 247.498 270.014 247.499C243.584 245.752 226.264 240.518 212.56 235.037C205.691 232.29 199.751 229.49 193.978 227.013C188.227 224.544 182.671 222.409 176.637 221.025C146.547 211.993 123.091 214.828 112.991 215.008C112.533 215.016 112.075 215.029 111.617 215.042C110.882 210.298 110.5 205.442 110.5 200.5C110.5 146.652 155.719 103 211.5 103Z" stroke="#FAF7F2" stroke-width="8" stroke-linecap="round"></path></svg>